<?xml version="1.0" encoding="UTF-8" standalone="no"?><!DOCTYPE svg PUBLIC "-//W3C//DTD SVG 1.1//EN" "http://www.w3.org/Graphics/SVG/1.1/DTD/svg11.dtd"><svg width="100%" height="100%" viewBox="0 0 2250 2250" version="1.1" xmlns="http://www.w3.org/2000/svg" xmlns:xlink="http://www.w3.org/1999/xlink" xml:space="preserve" xmlns:serif="http://www.serif.com/" style="fill-rule:evenodd;clip-rule:evenodd;stroke-linejoin:round;stroke-miterlimit:2;"><g><path d="M1125,-0l71.293,37.281l75.549,-27.656l65.817,46.268l78.512,-17.56l59.215,54.464l80.133,-7.161l51.599,61.726l80.382,3.359l43.101,67.934l79.256,13.822l33.865,72.978l76.773,24.05l24.05,76.773l72.978,33.865l13.822,79.256l67.934,43.101l3.359,80.382l61.726,51.599l-7.161,80.133l54.464,59.215l-17.56,78.512l46.268,65.817l-27.656,75.549l37.281,71.293l-37.281,71.293l27.656,75.549l-46.268,65.817l17.56,78.512l-54.464,59.215l7.161,80.133l-61.726,51.599l-3.359,80.382l-67.934,43.101l-13.822,79.256l-72.978,33.865l-24.05,76.773l-76.773,24.05l-33.865,72.978l-79.256,13.822l-43.101,67.934l-80.382,3.359l-51.599,61.726l-80.133,-7.161l-59.215,54.464l-78.512,-17.56l-65.817,46.268l-75.549,-27.656l-71.293,37.281l-71.293,-37.281l-75.549,27.656l-65.817,-46.268l-78.512,17.56l-59.215,-54.464l-80.133,7.161l-51.599,-61.726l-80.382,-3.359l-43.101,-67.934l-79.256,-13.822l-33.865,-72.978l-76.773,-24.05l-24.05,-76.773l-72.978,-33.865l-13.822,-79.256l-67.934,-43.101l-3.359,-80.382l-61.726,-51.599l7.161,-80.133l-54.464,-59.215l17.56,-78.512l-46.268,-65.817l27.656,-75.549l-37.281,-71.293l37.281,-71.293l-27.656,-75.549l46.268,-65.817l-17.56,-78.512l54.464,-59.215l-7.161,-80.133l61.726,-51.599l3.359,-80.382l67.934,-43.101l13.822,-79.256l72.978,-33.865l24.05,-76.773l76.773,-24.05l33.865,-72.978l79.256,-13.822l43.101,-67.934l80.382,-3.359l51.599,-61.726l80.133,7.161l59.215,-54.464l78.512,17.56l65.817,-46.268l75.549,27.656l71.293,-37.281Z" style="fill:#ebebeb;"/><path d="M1125,96.501l65.177,34.084l69.069,-25.285l60.171,42.299l71.778,-16.053l54.135,49.792l73.259,-6.547l47.173,56.431l73.487,3.072l39.404,62.106l72.457,12.637l30.96,66.718l70.189,21.986l21.986,70.189l66.718,30.96l12.637,72.457l62.106,39.404l3.072,73.487l56.431,47.173l-6.547,73.259l49.792,54.135l-16.053,71.778l42.299,60.171l-25.285,69.069l34.084,65.177l-34.084,65.177l25.285,69.069l-42.299,60.171l16.053,71.778l-49.792,54.135l6.547,73.259l-56.431,47.173l-3.072,73.487l-62.106,39.404l-12.637,72.457l-66.718,30.96l-21.986,70.189l-70.189,21.986l-30.96,66.718l-72.457,12.637l-39.404,62.106l-73.487,3.072l-47.173,56.431l-73.259,-6.547l-54.135,49.792l-71.778,-16.053l-60.171,42.299l-69.069,-25.285l-65.177,34.084l-65.177,-34.084l-69.069,25.285l-60.171,-42.299l-71.778,16.053l-54.135,-49.792l-73.259,6.547l-47.173,-56.431l-73.487,-3.072l-39.404,-62.106l-72.457,-12.637l-30.96,-66.718l-70.189,-21.986l-21.986,-70.189l-66.718,-30.96l-12.637,-72.457l-62.106,-39.404l-3.072,-73.487l-56.431,-47.173l6.547,-73.259l-49.792,-54.135l16.053,-71.778l-42.299,-60.171l25.285,-69.069l-34.084,-65.177l34.084,-65.177l-25.285,-69.069l42.299,-60.171l-16.053,-71.778l49.792,-54.135l-6.547,-73.259l56.431,-47.173l3.072,-73.487l62.106,-39.404l12.637,-72.457l66.718,-30.96l21.986,-70.189l70.189,-21.986l30.96,-66.718l72.457,-12.637l39.404,-62.106l73.487,-3.072l47.173,-56.431l73.259,6.547l54.135,-49.792l71.778,16.053l60.171,-42.299l69.069,25.285l65.177,-34.084Z" style="fill:url(#_Radial1);"/><path d="M1053.71,37.281l6.116,93.304l65.177,-34.084l-0,-96.501l-71.293,37.281Z" style="fill:#eff9fe;"/><path d="M1196.29,37.281l-6.116,93.304l69.069,-25.285l12.596,-95.675l-75.549,27.656Z" style="fill:#eff9fe;"/><path d="M1337.66,55.893l-18.242,91.706l71.778,-16.053l24.976,-93.213l-78.512,17.56Z" style="fill:#eff9fe;"/><path d="M1475.39,92.797l-30.056,88.541l73.259,-6.547l36.93,-89.155l-80.133,7.161Z" style="fill:#eff9fe;"/><path d="M1607.12,147.362l-41.356,83.86l73.487,3.072l48.251,-83.573l-80.382,-3.359Z" style="fill:#eff9fe;"/><path d="M1730.6,218.655l-51.948,77.745l72.457,12.637l58.747,-76.56l-79.256,-13.822Z" style="fill:#eff9fe;"/><path d="M1843.72,305.455l-61.652,70.3l70.189,21.986l68.236,-68.236l-76.773,-24.05Z" style="fill:#eff9fe;"/><path d="M1944.55,406.278l-70.3,61.652l66.718,30.96l76.56,-58.747l-72.978,-33.865Z" style="fill:#eff9fe;"/><path d="M2031.35,519.399l-77.745,51.948l62.106,39.404l83.573,-48.251l-67.934,-43.101Z" style="fill:#eff9fe;"/><path d="M2102.64,642.882l-83.86,41.356l56.431,47.173l89.155,-36.93l-61.726,-51.599Z" style="fill:#eff9fe;"/><path d="M2157.2,774.614l-88.541,30.056l49.792,54.135l93.213,-24.976l-54.464,-59.215Z" style="fill:#eff9fe;"/><path d="M2194.11,912.341l-91.706,18.242l42.299,60.171l95.675,-12.596l-46.268,-65.817Z" style="fill:#eff9fe;"/><path d="M2212.72,1053.71l-93.304,6.116l34.084,65.177l96.501,-0l-37.281,-71.293Z" style="fill:#eff9fe;"/><path d="M2212.72,1196.29l-93.304,-6.116l25.285,69.069l95.675,12.596l-27.656,-75.549Z" style="fill:#eff9fe;"/><path d="M2194.11,1337.66l-91.706,-18.242l16.053,71.778l93.213,24.976l-17.56,-78.512Z" style="fill:#eff9fe;"/><path d="M2157.2,1475.39l-88.541,-30.056l6.547,73.259l89.155,36.93l-7.161,-80.133Z" style="fill:#eff9fe;"/><path d="M2102.64,1607.12l-83.86,-41.356l-3.072,73.487l83.573,48.251l3.359,-80.382Z" style="fill:#eff9fe;"/><path d="M2031.35,1730.6l-77.745,-51.948l-12.637,72.457l76.56,58.747l13.822,-79.256Z" style="fill:#eff9fe;"/><path d="M1944.55,1843.72l-70.3,-61.652l-21.986,70.189l68.236,68.236l24.05,-76.773Z" style="fill:#eff9fe;"/><path d="M1843.72,1944.55l-61.652,-70.3l-30.96,66.718l58.747,76.56l33.865,-72.978Z" style="fill:#eff9fe;"/><path d="M1730.6,2031.35l-51.948,-77.745l-39.404,62.106l48.251,83.573l43.101,-67.934Z" style="fill:#eff9fe;"/><path d="M1607.12,2102.64l-41.356,-83.86l-47.173,56.431l36.93,89.155l51.599,-61.726Z" style="fill:#eff9fe;"/><path d="M1475.39,2157.2l-30.056,-88.541l-54.135,49.792l24.976,93.213l59.215,-54.464Z" style="fill:#eff9fe;"/><path d="M1337.66,2194.11l-18.242,-91.706l-60.171,42.299l12.596,95.675l65.817,-46.268Z" style="fill:#eff9fe;"/><path d="M1196.29,2212.72l-6.116,-93.304l-65.177,34.084l0,96.501l71.293,-37.281Z" style="fill:#eff9fe;"/><path d="M1053.71,2212.72l6.116,-93.304l-69.069,25.285l-12.596,95.675l75.549,-27.656Z" style="fill:#eff9fe;"/><path d="M912.341,2194.11l18.242,-91.706l-71.778,16.053l-24.976,93.213l78.512,-17.56Z" style="fill:#eff9fe;"/><path d="M774.614,2157.2l30.056,-88.541l-73.259,6.547l-36.93,89.155l80.133,-7.161Z" style="fill:#eff9fe;"/><path d="M642.882,2102.64l41.356,-83.86l-73.487,-3.072l-48.251,83.573l80.382,3.359Z" style="fill:#eff9fe;"/><path d="M519.399,2031.35l51.948,-77.745l-72.457,-12.637l-58.747,76.56l79.256,13.822Z" style="fill:#eff9fe;"/><path d="M406.278,1944.55l61.652,-70.3l-70.189,-21.986l-68.236,68.236l76.773,24.05Z" style="fill:#eff9fe;"/><path d="M305.455,1843.72l70.3,-61.652l-66.718,-30.96l-76.56,58.747l72.978,33.865Z" style="fill:#eff9fe;"/><path d="M218.655,1730.6l77.745,-51.948l-62.106,-39.404l-83.573,48.251l67.934,43.101Z" style="fill:#eff9fe;"/><path d="M147.362,1607.12l83.86,-41.356l-56.431,-47.173l-89.155,36.93l61.726,51.599Z" style="fill:#eff9fe;"/><path d="M92.797,1475.39l88.541,-30.056l-49.792,-54.135l-93.213,24.976l54.464,59.215Z" style="fill:#eff9fe;"/><path d="M55.893,1337.66l91.706,-18.242l-42.299,-60.171l-95.675,12.596l46.268,65.817Z" style="fill:#eff9fe;"/><path d="M37.281,1196.29l93.304,-6.116l-34.084,-65.177l-96.501,0l37.281,71.293Z" style="fill:#eff9fe;"/><path d="M37.281,1053.71l93.304,6.116l-25.285,-69.069l-95.675,-12.596l27.656,75.549Z" style="fill:#eff9fe;"/><path d="M55.893,912.341l91.706,18.242l-16.053,-71.778l-93.213,-24.976l17.56,78.512Z" style="fill:#eff9fe;"/><path d="M92.797,774.614l88.541,30.056l-6.547,-73.259l-89.155,-36.93l7.161,80.133Z" style="fill:#eff9fe;"/><path d="M147.362,642.882l83.86,41.356l3.072,-73.487l-83.573,-48.251l-3.359,80.382Z" style="fill:#eff9fe;"/><path d="M218.655,519.399l77.745,51.948l12.637,-72.457l-76.56,-58.747l-13.822,79.256Z" style="fill:#eff9fe;"/><path d="M305.455,406.278l70.3,61.652l21.986,-70.189l-68.236,-68.236l-24.05,76.773Z" style="fill:#eff9fe;"/><path d="M406.278,305.455l61.652,70.3l30.96,-66.718l-58.747,-76.56l-33.865,72.978Z" style="fill:#eff9fe;"/><path d="M519.399,218.655l51.948,77.745l39.404,-62.106l-48.251,-83.573l-43.101,67.934Z" style="fill:#eff9fe;"/><path d="M642.882,147.362l41.356,83.86l47.173,-56.431l-36.93,-89.155l-51.599,61.726Z" style="fill:#eff9fe;"/><path d="M774.614,92.797l30.056,88.541l54.135,-49.792l-24.976,-93.213l-59.215,54.464Z" style="fill:#eff9fe;"/><path d="M912.341,55.893l18.242,91.706l60.171,-42.299l-12.596,-95.675l-65.817,46.268Z" style="fill:#eff9fe;"/></g><defs><radialGradient id="_Radial1" cx="0" cy="0" r="1" gradientUnits="userSpaceOnUse" gradientTransform="matrix(-1028.5,-1.25955e-13,1.25955e-13,-1028.5,1125,1125)"><stop offset="0" style="stop-color:#fff;stop-opacity:1"/><stop offset="1" style="stop-color:#e5eaeb;stop-opacity:1"/></radialGradient></defs></svg>