<?xml version="1.0" encoding="UTF-8" standalone="no"?><!DOCTYPE svg PUBLIC "-//W3C//DTD SVG 1.1//EN" "http://www.w3.org/Graphics/SVG/1.1/DTD/svg11.dtd"><svg width="100%" height="100%" viewBox="0 0 2250 2250" version="1.1" xmlns="http://www.w3.org/2000/svg" xmlns:xlink="http://www.w3.org/1999/xlink" xml:space="preserve" xmlns:serif="http://www.serif.com/" style="fill-rule:evenodd;clip-rule:evenodd;stroke-linejoin:round;stroke-miterlimit:2;"><path d="M1092.95,19.156c6.343,-11.797 18.654,-19.156 32.048,-19.156c13.394,0 25.705,7.359 32.048,19.156l64.967,120.834l87.293,-105.838c8.522,-10.333 22.032,-15.148 35.169,-12.535c13.136,2.613 23.775,12.232 27.695,25.039l40.145,131.187l106.263,-86.774c10.375,-8.472 24.564,-10.559 36.939,-5.433c12.374,5.125 20.932,16.635 22.278,29.961l13.78,136.498l121.151,-64.376c11.827,-6.285 26.152,-5.564 37.289,1.878c11.136,7.441 17.284,20.399 16.004,33.732l-13.114,136.564l131.382,-39.504c12.827,-3.857 26.735,-0.355 36.206,9.116c9.471,9.471 12.973,23.379 9.116,36.206l-39.504,131.382l136.564,-13.114c13.333,-1.28 26.291,4.868 33.732,16.004c7.442,11.137 8.163,25.462 1.878,37.289l-64.376,121.151l136.498,13.78c13.326,1.346 24.836,9.904 29.961,22.278c5.126,12.375 3.039,26.564 -5.433,36.939l-86.774,106.263l131.187,40.145c12.807,3.92 22.426,14.559 25.039,27.695c2.613,13.137 -2.202,26.647 -12.535,35.169l-105.838,87.293l120.834,64.967c11.797,6.343 19.156,18.654 19.156,32.048c0,13.394 -7.359,25.705 -19.156,32.048l-120.834,64.967l105.838,87.293c10.333,8.522 15.148,22.032 12.535,35.169c-2.613,13.136 -12.232,23.775 -25.039,27.695l-131.187,40.145l86.774,106.263c8.472,10.375 10.559,24.564 5.433,36.939c-5.125,12.374 -16.635,20.932 -29.961,22.278l-136.498,13.78l64.376,121.151c6.285,11.827 5.564,26.152 -1.878,37.289c-7.441,11.136 -20.399,17.284 -33.732,16.004l-136.564,-13.114l39.504,131.382c3.857,12.827 0.355,26.735 -9.116,36.206c-9.471,9.471 -23.379,12.973 -36.206,9.116l-131.382,-39.504l13.114,136.564c1.28,13.333 -4.868,26.291 -16.004,33.732c-11.137,7.442 -25.462,8.163 -37.289,1.878l-121.151,-64.376l-13.78,136.498c-1.346,13.326 -9.904,24.836 -22.278,29.961c-12.375,5.126 -26.564,3.039 -36.939,-5.433l-106.263,-86.774l-40.145,131.187c-3.92,12.807 -14.559,22.426 -27.695,25.039c-13.137,2.613 -26.647,-2.202 -35.169,-12.535l-87.293,-105.838l-64.967,120.834c-6.343,11.797 -18.654,19.156 -32.048,19.156c-13.394,-0 -25.705,-7.359 -32.048,-19.156l-64.967,-120.834l-87.293,105.838c-8.522,10.333 -22.032,15.148 -35.169,12.535c-13.136,-2.613 -23.775,-12.232 -27.695,-25.039l-40.145,-131.187l-106.263,86.774c-10.375,8.472 -24.564,10.559 -36.939,5.433c-12.374,-5.125 -20.932,-16.635 -22.278,-29.961l-13.78,-136.498l-121.151,64.376c-11.827,6.285 -26.152,5.564 -37.289,-1.878c-11.136,-7.441 -17.284,-20.399 -16.004,-33.732l13.114,-136.564l-131.382,39.504c-12.827,3.857 -26.735,0.355 -36.206,-9.116c-9.471,-9.471 -12.973,-23.379 -9.116,-36.206l39.504,-131.382l-136.564,13.114c-13.333,1.28 -26.291,-4.868 -33.732,-16.004c-7.442,-11.137 -8.163,-25.462 -1.878,-37.289l64.376,-121.151l-136.498,-13.78c-13.326,-1.346 -24.836,-9.904 -29.961,-22.278c-5.126,-12.375 -3.039,-26.564 5.433,-36.939l86.774,-106.263l-131.187,-40.145c-12.807,-3.92 -22.426,-14.559 -25.039,-27.695c-2.613,-13.137 2.202,-26.647 12.535,-35.169l105.838,-87.293l-120.834,-64.967c-11.797,-6.343 -19.156,-18.654 -19.156,-32.048c-0,-13.394 7.359,-25.705 19.156,-32.048l120.834,-64.967l-105.838,-87.293c-10.333,-8.522 -15.148,-22.032 -12.535,-35.169c2.613,-13.136 12.232,-23.775 25.039,-27.695l131.187,-40.145l-86.774,-106.263c-8.472,-10.375 -10.559,-24.564 -5.433,-36.939c5.125,-12.374 16.635,-20.932 29.961,-22.278l136.498,-13.78l-64.376,-121.151c-6.285,-11.827 -5.564,-26.152 1.878,-37.289c7.441,-11.136 20.399,-17.284 33.732,-16.004l136.564,13.114l-39.504,-131.382c-3.857,-12.827 -0.355,-26.735 9.116,-36.206c9.471,-9.471 23.379,-12.973 36.206,-9.116l131.382,39.504l-13.114,-136.564c-1.28,-13.333 4.868,-26.291 16.004,-33.732c11.137,-7.442 25.462,-8.163 37.289,-1.878l121.151,64.376l13.78,-136.498c1.346,-13.326 9.904,-24.836 22.278,-29.961c12.375,-5.126 26.564,-3.039 36.939,5.433l106.263,86.774l40.145,-131.187c3.92,-12.807 14.559,-22.426 27.695,-25.039c13.137,-2.613 26.647,2.202 35.169,12.535l87.293,105.838l64.967,-120.834Z" style="fill:url(#_Radial1);"/><path id="v" d="M1125,0l0,229.167l-78.331,100.529l-18.684,-189.706l64.967,-120.834c6.343,-11.797 18.654,-19.156 32.048,-19.156" style="fill:#eee;"/><path id="v1" serif:id="v" d="M905.523,21.617l44.709,224.763l-57.214,113.879l-55.335,-182.416l40.145,-131.187c3.92,-12.807 14.559,-22.426 27.695,-25.039" style="fill:#eee;"/><path id="v2" serif:id="v" d="M694.481,85.636l87.698,211.722l-33.897,122.852l-89.859,-168.115l13.78,-136.498c1.346,-13.326 9.904,-24.836 22.278,-29.961" style="fill:#eee;"/><path id="v3" serif:id="v" d="M499.983,189.597l127.319,190.545l-9.279,127.105l-120.93,-147.354l-13.114,-136.564c-1.28,-13.333 4.868,-26.291 16.004,-33.732" style="fill:#eee;"/><path id="v4" serif:id="v" d="M329.505,329.505l162.045,162.045l15.697,126.473l-147.354,-120.93l-39.504,-131.382c-3.857,-12.827 -0.355,-26.735 9.116,-36.206" style="fill:#eee;"/><path id="v5" serif:id="v" d="M189.597,499.983l190.545,127.319l40.068,120.98l-168.115,-89.859l-64.376,-121.151c-6.285,-11.827 -5.564,-26.152 1.878,-37.289" style="fill:#eee;"/><path id="v6" serif:id="v" d="M85.636,694.481l211.722,87.698l62.901,110.839l-182.416,-55.335l-86.774,-106.263c-8.472,-10.375 -10.559,-24.564 -5.433,-36.939" style="fill:#eee;"/><path id="v7" serif:id="v" d="M21.617,905.523l224.763,44.709l83.316,96.437l-189.706,-18.684l-105.838,-87.293c-10.333,-8.522 -15.148,-22.032 -12.535,-35.169" style="fill:#eee;"/><path id="v8" serif:id="v" d="M-0,1125l229.167,-0l100.529,78.331l-189.706,18.684l-120.834,-64.967c-11.797,-6.343 -19.156,-18.654 -19.156,-32.048" style="fill:#eee;"/><path id="v9" serif:id="v" d="M21.617,1344.48l224.763,-44.709l113.879,57.214l-182.416,55.335l-131.187,-40.145c-12.807,-3.92 -22.426,-14.559 -25.039,-27.695" style="fill:#eee;"/><path id="v10" serif:id="v" d="M85.636,1555.52l211.722,-87.698l122.852,33.897l-168.115,89.859l-136.498,-13.78c-13.326,-1.346 -24.836,-9.904 -29.961,-22.278" style="fill:#eee;"/><path id="v11" serif:id="v" d="M189.597,1750.02l190.545,-127.319l127.105,9.279l-147.354,120.93l-136.564,13.114c-13.333,1.28 -26.291,-4.868 -33.732,-16.004" style="fill:#eee;"/><path id="v12" serif:id="v" d="M329.505,1920.5l162.045,-162.045l126.473,-15.697l-120.93,147.354l-131.382,39.504c-12.827,3.857 -26.735,0.355 -36.206,-9.116" style="fill:#eee;"/><path id="v13" serif:id="v" d="M499.983,2060.4l127.319,-190.545l120.98,-40.068l-89.859,168.115l-121.151,64.376c-11.827,6.285 -26.152,5.564 -37.289,-1.878" style="fill:#eee;"/><path id="v14" serif:id="v" d="M694.481,2164.36l87.698,-211.722l110.839,-62.901l-55.335,182.416l-106.263,86.774c-10.375,8.472 -24.564,10.559 -36.939,5.433" style="fill:#eee;"/><path id="v15" serif:id="v" d="M905.523,2228.38l44.709,-224.763l96.437,-83.316l-18.684,189.706l-87.293,105.838c-8.522,10.333 -22.032,15.148 -35.169,12.535" style="fill:#eee;"/><path id="v16" serif:id="v" d="M1125,2250l-0,-229.167l78.331,-100.529l18.684,189.706l-64.967,120.834c-6.343,11.797 -18.654,19.156 -32.048,19.156" style="fill:#eee;"/><path id="v17" serif:id="v" d="M1344.48,2228.38l-44.709,-224.763l57.214,-113.879l55.335,182.416l-40.145,131.187c-3.92,12.807 -14.559,22.426 -27.695,25.039" style="fill:#eee;"/><path id="v18" serif:id="v" d="M1555.52,2164.36l-87.698,-211.722l33.897,-122.852l89.859,168.115l-13.78,136.498c-1.346,13.326 -9.904,24.836 -22.278,29.961" style="fill:#eee;"/><path id="v19" serif:id="v" d="M1750.02,2060.4l-127.319,-190.545l9.279,-127.105l120.93,147.354l13.114,136.564c1.28,13.333 -4.868,26.291 -16.004,33.732" style="fill:#eee;"/><path id="v20" serif:id="v" d="M1920.5,1920.5l-162.045,-162.045l-15.697,-126.473l147.354,120.93l39.504,131.382c3.857,12.827 0.355,26.735 -9.116,36.206" style="fill:#eee;"/><path id="v21" serif:id="v" d="M2060.4,1750.02l-190.545,-127.319l-40.068,-120.98l168.115,89.859l64.376,121.151c6.285,11.827 5.564,26.152 -1.878,37.289" style="fill:#eee;"/><path id="v22" serif:id="v" d="M2164.36,1555.52l-211.722,-87.698l-62.901,-110.839l182.416,55.335l86.774,106.263c8.472,10.375 10.559,24.564 5.433,36.939" style="fill:#eee;"/><path id="v23" serif:id="v" d="M2228.38,1344.48l-224.763,-44.709l-83.316,-96.437l189.706,18.684l105.838,87.293c10.333,8.522 15.148,22.032 12.535,35.169" style="fill:#eee;"/><path id="v24" serif:id="v" d="M2250,1125l-229.167,0l-100.529,-78.331l189.706,-18.684l120.834,64.967c11.797,6.343 19.156,18.654 19.156,32.048" style="fill:#eee;"/><path id="v25" serif:id="v" d="M2228.38,905.523l-224.763,44.709l-113.879,-57.214l182.416,-55.335l131.187,40.145c12.807,3.92 22.426,14.559 25.039,27.695" style="fill:#eee;"/><path id="v26" serif:id="v" d="M2164.36,694.481l-211.722,87.698l-122.852,-33.897l168.115,-89.859l136.498,13.78c13.326,1.346 24.836,9.904 29.961,22.278" style="fill:#eee;"/><path id="v27" serif:id="v" d="M2060.4,499.983l-190.545,127.319l-127.105,-9.279l147.354,-120.93l136.564,-13.114c13.333,-1.28 26.291,4.868 33.732,16.004" style="fill:#eee;"/><path id="v28" serif:id="v" d="M1920.5,329.505l-162.045,162.045l-126.473,15.697l120.93,-147.354l131.382,-39.504c12.827,-3.857 26.735,-0.355 36.206,9.116" style="fill:#eee;"/><path id="v29" serif:id="v" d="M1750.02,189.597l-127.319,190.545l-120.98,40.068l89.859,-168.115l121.151,-64.376c11.827,-6.285 26.152,-5.564 37.289,1.878" style="fill:#eee;"/><path id="v30" serif:id="v" d="M1555.52,85.636l-87.698,211.722l-110.839,62.901l55.335,-182.416l106.263,-86.774c10.375,-8.472 24.564,-10.559 36.939,-5.433" style="fill:#eee;"/><path id="v31" serif:id="v" d="M1344.48,21.617l-44.709,224.763l-96.437,83.316l18.684,-189.706l87.293,-105.838c8.522,-10.333 22.032,-15.148 35.169,-12.535" style="fill:#eee;"/><path d="M1125,216.667l78.331,113.029l98.876,-95.576l54.775,126.139l115.622,-74.45l29.114,134.401l127.925,-50.462l2.334,137.499l135.312,-24.536l-24.536,135.312l137.499,2.334l-50.462,127.925l134.401,29.114l-74.45,115.622l126.139,54.775l-95.576,98.876l113.029,78.331l-113.029,78.331l95.576,98.876l-126.139,54.775l74.45,115.622l-134.401,29.114l50.462,127.925l-137.499,2.334l24.536,135.312l-135.312,-24.536l-2.334,137.499l-127.925,-50.462l-29.114,134.401l-115.622,-74.45l-54.775,126.139l-98.876,-95.576l-78.331,113.029l-78.331,-113.029l-98.876,95.576l-54.775,-126.139l-115.622,74.45l-29.114,-134.401l-127.925,50.462l-2.334,-137.499l-135.312,24.536l24.536,-135.312l-137.499,-2.334l50.462,-127.925l-134.401,-29.114l74.45,-115.622l-126.139,-54.775l95.576,-98.876l-113.029,-78.331l113.029,-78.331l-95.576,-98.876l126.139,-54.775l-74.45,-115.622l134.401,-29.114l-50.462,-127.925l137.499,-2.334l-24.536,-135.312l135.312,24.536l2.334,-137.499l127.925,50.462l29.114,-134.401l115.622,74.45l54.775,-126.139l98.876,95.576l78.331,-113.029Z" style="fill:url(#_Radial2);"/><defs><radialGradient id="_Radial1" cx="0" cy="0" r="1" gradientUnits="userSpaceOnUse" gradientTransform="matrix(-1125,-1.37773e-13,1.37773e-13,-1125,1125,1125)"><stop offset="0" style="stop-color:#a4a4a4;stop-opacity:1"/><stop offset="1" style="stop-color:#c6c6c6;stop-opacity:1"/></radialGradient><radialGradient id="_Radial2" cx="0" cy="0" r="1" gradientUnits="userSpaceOnUse" gradientTransform="matrix(-908.333,-1.11239e-13,1.11239e-13,-908.333,1125,1125)"><stop offset="0" style="stop-color:#a4a4a4;stop-opacity:1"/><stop offset="1" style="stop-color:#c6c6c6;stop-opacity:1"/></radialGradient></defs></svg>